<svg xmlns="http://www.w3.org/2000/svg" viewBox="0 0 400 400"><defs><style>.cls-1{fill:none;}.cls-2{fill:#36a4ff;}.cls-3{fill:#6da1d1;}</style></defs><g id="Layer_2" data-name="Layer 2"><g id="Layer_1-2" data-name="Layer 1"><rect class="cls-1" width="400" height="400"/><polygon class="cls-2" points="100.38 239.68 109.45 226.32 114.7 215.34 114.7 199.6 114.7 189.1 110.41 178.6 110.88 170.49 114.7 160.94 114.7 150.92 118.52 142.81 124.25 133.26 127.11 125.15 131.4 123.24 136.65 116.08 149.06 109.88 159.08 104.15 165.29 100.33 169.11 100.33 172.92 102.24 172.92 106.06 183.42 103.2 189.63 105.11 189.63 110.35 192.97 114.17 196.31 117.99 196.31 125.15 186.29 132.78 173.88 147.58 165.76 161.9 165.76 166.19 171.01 163.8 179.6 154.74 185.81 147.1 192.01 140.9 199.17 134.22 204.42 135.65 206.81 140.42 202.51 149.49 186.29 167.15 180.56 178.12 176.74 196.26 172.45 214.87 166.24 229.19 157.18 242.55 150.49 247.32 143.34 266.89 140.95 275 100.38 239.68"/><polygon class="cls-2" points="251.67 143.76 260.26 147.58 265 150 269.8 154.26 274 158 276 163 276.01 163.8 274.57 168.1 274.57 174.3 273.62 180.99 271.71 187.67 269.32 195.78 265.51 207.71 260.26 215.34 253.58 222.03 253.58 229.19 255.96 237.3 257.87 247.32 283.16 250.18 297.48 237.78 291.28 222.03 289.85 211.05 292.23 201.98 295.57 186.23 297.48 177.17 299.39 169.05 299.39 162.37 297.96 153.31 295.1 141.85 293.19 130.4 289.85 128.01 286.5 126.1 283.16 120.85 281.25 116.56 275.53 114.65 262.17 110.83 253.58 108.44 243.55 108.44 241.26 108.88 238 111 238 115 241 116 244 117 248 119 245.7 119.18 244.75 123 245.22 126.34 248.56 129.68 253.34 130.16 259.06 133.02 266.22 134.93 272.9 138.75 278.87 141.85 279.11 142.57 269.56 139.23 262.4 137.79 258.59 137.32 254.29 135.41 251.43 135.41 247.13 135.89 246.66 140.18 251.67 143.76"/><polygon class="cls-3" points="100.38 239.68 109.45 226.32 114.7 215.34 114.7 199.6 114.7 189.1 110.41 178.6 110.88 170.49 114.7 160.94 114.7 150.92 118.52 142.81 124.25 133.26 127.11 125.15 131.4 123.24 136.65 116.08 149.06 109.88 159.08 104.15 165.29 100.33 169.11 100.33 172.92 102.24 172.92 106.06 183.42 103.2 189.63 105.11 189.63 110.35 192.97 114.17 196.31 117.99 196.31 125.15 186.29 132.78 173.88 147.58 165.76 161.9 165.76 166.19 171.01 163.8 179.6 154.74 185.81 147.1 192.01 140.9 199.17 134.22 204.42 135.65 206.81 140.42 202.51 149.49 186.29 167.15 180.56 178.12 176.74 196.26 172.45 214.87 166.24 229.19 157.18 242.55 150.49 247.32 143.34 266.89 140.95 275 100.38 239.68"/><polygon class="cls-3" points="251.67 143.76 260.26 147.58 265 150 269.8 154.26 274 158 276 163 276.01 163.8 274.57 168.1 274.57 174.3 273.62 180.99 271.71 187.67 269.32 195.78 265.51 207.71 260.26 215.34 253.58 222.03 253.58 229.19 255.96 237.3 257.87 247.32 283.16 250.18 297.48 237.78 291.28 222.03 289.85 211.05 292.23 201.98 295.57 186.23 297.48 177.17 299.39 169.05 299.39 162.37 297.96 153.31 295.1 141.85 293.19 130.4 289.85 128.01 286.5 126.1 283.16 120.85 281.25 116.56 275.53 114.65 262.17 110.83 253.58 108.44 243.55 108.44 241.26 108.88 238 111 238 115 241 116 244 117 248 119 245.7 119.18 244.75 123 245.22 126.34 248.56 129.68 253.34 130.16 259.06 133.02 266.22 134.93 272.9 138.75 278.87 141.85 279.11 142.57 269.56 139.23 262.4 137.79 258.59 137.32 254.29 135.41 251.43 135.41 247.13 135.89 246.66 140.18 251.67 143.76"/></g></g></svg>